# xmcd
# 
# Track frame offsets:
#     150
#     10850
#     20412
#     37062
#     53375
#     79775
#     106242
#     122347
#     136025
#     151090
#     163077
#     189960
#     201525
#     223330
#     236115
#     262137
#     275670
#     315620
# 
# Disc length: 4408
# 
# Revision: 3
# Processed by: cddbd v1.5.2PL0 Copyright (c) Steve Scherf et al.
# Submitted via: BonkEnc v1.0
# 
DISCID=f7113612
DTITLE=Mandy BARNETT - The Original "ALWAYS" Paltsy Cline
DYEAR=1995
DGENRE=Country
TTITLE0=Honky Tonk Merry Go Round
TTITLE1=Back In Baby's Arms
TTITLE2=Anytime
TTITLE3=Walkin' After Midnight
TTITLE4=I Fall To Pieces
TTITLE5=It Wasn't God Who Made Honky Tonk Angels
TTITLE6=Come On In
TTITLE7=Your Cheatin' Heart
TTITLE8=She's Got You
TTITLE9=Lovesick Blues
TTITLE10=Sweet Dreams
TTITLE11=Three Cigarettes In An Ashtray
TTITLE12=Crazy
TTITLE13=The Eyes Of A Child
TTITLE14=Blue Moon Of Kentucky
TTITLE15=Gotta Lot Of Rhythm
TTITLE16=Faded Love
TTITLE17=Always
EXTD=
EXTT0=
EXTT1=
EXTT2=
EXTT3=
EXTT4=
EXTT5=
EXTT6=
EXTT7=
EXTT8=
EXTT9=
EXTT10=
EXTT11=
EXTT12=
EXTT13=
EXTT14=
EXTT15=
EXTT16=
EXTT17=
PLAYORDER=
